<svg width="24" height="24" viewBox="0 0 24 24" fill="none" xmlns="http://www.w3.org/2000/svg">
<path d="M18.7098 15.79C18.6169 15.8837 18.5063 15.9581 18.3844 16.0089C18.2625 16.0597 18.1318 16.0858 17.9998 16.0858C17.8678 16.0858 17.7371 16.0597 17.6152 16.0089C17.4934 15.9581 17.3828 15.8837 17.2898 15.79L12.7098 11.21C12.6169 11.1163 12.5063 11.0419 12.3844 10.9911C12.2625 10.9404 12.1318 10.9142 11.9998 10.9142C11.8678 10.9142 11.7371 10.9404 11.6152 10.9911C11.4934 11.0419 11.3828 11.1163 11.2898 11.21L6.70982 15.79C6.61685 15.8837 6.50625 15.9581 6.38439 16.0089C6.26253 16.0597 6.13183 16.0858 5.99982 16.0858C5.8678 16.0858 5.7371 16.0597 5.61524 16.0089C5.49338 15.9581 5.38278 15.8837 5.28982 15.79C5.10356 15.6027 4.99902 15.3492 4.99902 15.085C4.99902 14.8208 5.10356 14.5674 5.28982 14.38L9.87982 9.79003C10.4423 9.22823 11.2048 8.91267 11.9998 8.91267C12.7948 8.91267 13.5573 9.22823 14.1198 9.79003L18.7098 14.38C18.8961 14.5674 19.0006 14.8208 19.0006 15.085C19.0006 15.3492 18.8961 15.6027 18.7098 15.79Z" fill="#0C0C0C"/>
</svg>
