<svg width="20" height="20" viewBox="0 0 20 20" fill="none" xmlns="http://www.w3.org/2000/svg">
<path d="M16.4859 10.0659C16.3492 9.57752 16.1951 9.06085 16.0234 8.50502C15.515 7.10354 15.1716 5.64762 15.0001 4.16669C15.0001 3.94567 15.0879 3.73371 15.2441 3.57743C15.4004 3.42115 15.6124 3.33335 15.8334 3.33335C16.0544 3.33335 16.2664 3.42115 16.4227 3.57743C16.5789 3.73371 16.6667 3.94567 16.6667 4.16669C16.6667 4.3877 16.7545 4.59966 16.9108 4.75594C17.0671 4.91222 17.279 5.00002 17.5001 5.00002C17.7211 5.00002 17.933 4.91222 18.0893 4.75594C18.2456 4.59966 18.3334 4.3877 18.3334 4.16669C18.3334 3.50365 18.07 2.86776 17.6012 2.39892C17.1323 1.93008 16.4964 1.66669 15.8334 1.66669C15.1704 1.66669 14.5345 1.93008 14.0656 2.39892C13.5968 2.86776 13.3334 3.50365 13.3334 4.16669C13.3541 4.80302 13.4432 5.43527 13.5992 6.05252L9.59923 9.16669L4.9759 5.83335H7.50006C7.72108 5.83335 7.93304 5.74556 8.08932 5.58928C8.2456 5.433 8.3334 5.22103 8.3334 5.00002C8.3334 4.77901 8.2456 4.56704 8.08932 4.41076C7.93304 4.25448 7.72108 4.16669 7.50006 4.16669H4.9759C4.6297 4.16658 4.29234 4.27598 4.01209 4.47923C3.73184 4.68247 3.52305 4.96915 3.4156 5.29825C3.30815 5.62735 3.30754 5.982 3.41387 6.31146C3.5202 6.64093 3.728 6.92832 4.00756 7.13252L8.2334 10.2259L7.03506 11.1584C6.29072 10.4575 5.31282 10.0579 4.2907 10.0367C3.26858 10.0155 2.27496 10.3743 1.5022 11.0436C0.729446 11.713 0.232538 12.6452 0.107684 13.6599C-0.0171702 14.6746 0.238913 15.6995 0.826351 16.5363C1.41379 17.373 2.29079 17.962 3.28756 18.1892C4.28433 18.4164 5.32995 18.2657 6.22198 17.7662C7.11402 17.2668 7.789 16.4541 8.11624 15.4856C8.44348 14.517 8.39971 13.4615 7.9934 12.5234L14.0676 7.79919C14.1851 8.19585 14.6734 9.78585 14.7809 10.1517C13.7848 10.4118 12.9205 11.0318 12.3549 11.892C11.7893 12.7521 11.5626 13.7914 11.7186 14.809C11.8746 15.8266 12.4022 16.7502 13.1995 17.4014C13.9968 18.0527 15.0072 18.3853 16.0354 18.3351C17.0636 18.2848 18.0368 17.8552 18.7667 17.1293C19.4967 16.4034 19.9317 15.4328 19.9877 14.4048C20.0438 13.3769 19.7168 12.3647 19.07 11.5637C18.4233 10.7628 17.5026 10.23 16.4859 10.0684V10.0659ZM4.16673 16.6667C3.67228 16.6667 3.18893 16.5201 2.7778 16.2454C2.36668 15.9707 2.04625 15.5802 1.85703 15.1234C1.66781 14.6666 1.6183 14.1639 1.71477 13.679C1.81123 13.194 2.04933 12.7486 2.39896 12.3989C2.74859 12.0493 3.19405 11.8112 3.679 11.7147C4.16396 11.6183 4.66662 11.6678 5.12344 11.857C5.58025 12.0462 5.9707 12.3666 6.2454 12.7778C6.52011 13.1889 6.66673 13.6722 6.66673 14.1667C6.66673 14.8297 6.40334 15.4656 5.9345 15.9345C5.46566 16.4033 4.82977 16.6667 4.16673 16.6667ZM15.8334 16.6667C15.3389 16.6667 14.8556 16.5201 14.4445 16.2454C14.0333 15.9707 13.7129 15.5802 13.5237 15.1234C13.3345 14.6666 13.285 14.1639 13.3814 13.679C13.4779 13.194 13.716 12.7486 14.0656 12.3989C14.4153 12.0493 14.8607 11.8112 15.3457 11.7147C15.8306 11.6183 16.3333 11.6678 16.7901 11.857C17.2469 12.0462 17.6374 12.3666 17.9121 12.7778C18.1868 13.1889 18.3334 13.6722 18.3334 14.1667C18.3334 14.8297 18.07 15.4656 17.6012 15.9345C17.1323 16.4033 16.4964 16.6667 15.8334 16.6667Z" fill="#3922C5"/>
</svg>
